# xmcd
#
# Track frame offsets:
#	183
#	15553
#	30455
#	43453
#	59123
#	74145
#	88143
#	101943
#	115373
#	129135
#	143565
#	159160
#	171623
#	186453
#	197103
#	208903
#	221653
#	236313
#
# Disc length: 3357 seconds
#
# Revision: 0
# Processed by: cddbd v1.4PL0 Copyright (c) Steve Scherf et al.
# Submitted via: dBpowerAMP V4.0
#
DISCID=1b0d1b12
DTITLE=Jimmie Rodgers - My Old Pal
DYEAR=1900
DGENRE=
TTITLE0=Blue Yodel (T for Texas)
TTITLE1=Away Out On The Moutain
TTITLE2=Frankie And Johnny
TTITLE3=Grambling Bar Room Blues
TTITLE4=When The Cactus Is In Bloom
TTITLE5=Sleep, Baby, Sleep
TTITLE6=My Old Pal
TTITLE7=Daddy And Home
TTITLE8=My Carolina Sunshine Girl
TTITLE9=Why There's A Tear In My Eye
TTITLE10=We Miss Him When The Evening Shadows Fall
TTITLE11=Never No No' Blues
TTITLE12=Blue Yodel No. 3
TTITLE13=I'm Sorry We Met
TTITLE14=Blue Yodel No. 5
TTITLE15=Any Old Time
TTITLE16=Lullaby Yodel
TTITLE17=Looking For A New Mama
EXTD=
EXTT0=
EXTT1=
EXTT2=
EXTT3=
EXTT4=
EXTT5=
EXTT6=
EXTT7=
EXTT8=
EXTT9=
EXTT10=
EXTT11=
EXTT12=
EXTT13=
EXTT14=
EXTT15=
EXTT16=
EXTT17=
PLAYORDER=
